<?xml version="1.0" encoding="UTF-8" standalone="no"?>
<!-- Generator: Adobe Illustrator 18.0.0, SVG Export Plug-In . SVG Version: 6.00 Build 0)  -->

<svg
   version="1.1"
   x="0px"
   y="0px"
   viewBox="0 0 512 512"
   enable-background="new 0 0 512 512"
   xml:space="preserve"
   id="svg20"
   sodipodi:docname="icon.svg"
   inkscape:version="1.4 (e7c3feb100, 2024-10-09)"
   inkscape:export-filename="/home/will/dev/will/one-dark-dracula/icon.png"
   inkscape:export-xdpi="96"
   inkscape:export-ydpi="96"
   xmlns:inkscape="http://www.inkscape.org/namespaces/inkscape"
   xmlns:sodipodi="http://sodipodi.sourceforge.net/DTD/sodipodi-0.dtd"
   xmlns="http://www.w3.org/2000/svg"
   xmlns:svg="http://www.w3.org/2000/svg"><defs
   id="defs24">
	

		
		
		
		
		
		
	



	
	
	













	

		
		
		
		
		
		
	</defs><sodipodi:namedview
   id="namedview22"
   pagecolor="#ffffff"
   bordercolor="#666666"
   borderopacity="1.0"
   inkscape:pageshadow="2"
   inkscape:pageopacity="0.0"
   inkscape:pagecheckerboard="0"
   showgrid="false"
   inkscape:zoom="1.2731442"
   inkscape:cx="208.1461"
   inkscape:cy="221.49887"
   inkscape:window-width="2560"
   inkscape:window-height="1011"
   inkscape:window-x="0"
   inkscape:window-y="0"
   inkscape:window-maximized="1"
   inkscape:current-layer="svg20"
   inkscape:showpageshadow="2"
   inkscape:deskcolor="#d1d1d1" />


<rect
   style="fill:#c3eae7;fill-opacity:1;stroke:none;stroke-width:12.8504;stroke-linecap:square;stroke-opacity:0.554233"
   id="rect1"
   width="512"
   height="512"
   x="0"
   y="0"
   rx="114.11148"
   ry="114.11148" /><g
   id="g19"
   transform="translate(29.436304,-15.23391)"><path
     style="fill:#ed1c24;fill-opacity:1;stroke-width:0.999999"
     d="m 123.38536,423.88701 c -6.72796,-1.60058 -12.81298,-4.1114 -19.37699,-7.99551 l -5.571894,-3.29706 -5.178495,-4.73263 -5.178491,-4.73263 -4.40583,-6.63627 -4.40584,-6.63628 -2.082693,-5.27841 c -1.145474,-2.90314 -2.633281,-7.65371 -3.306239,-10.55684 l -1.223545,-5.27842 -0.01202,-36.01919 -0.01202,-36.0192 11.407638,-39.5028 c 6.274203,-21.72654 12.163695,-41.87808 13.087745,-44.7812 l 1.680099,-5.27843 30.966755,-31.11846 c 17.03171,-17.11515 31.89232,-31.60937 33.02356,-32.20924 1.13125,-0.59987 22.56794,-7.71193 47.63711,-15.80456 l 45.58029,-14.71379 35.88491,0.0349 35.8849,0.0357 5.6479,1.28461 c 3.10634,0.70649 7.9112,2.19842 10.67746,3.31541 l 5.02956,2.03081 6.51333,4.31783 6.51332,4.31783 4.19886,4.43972 c 8.25753,8.73107 14.17387,19.77604 16.81617,31.39335 l 1.30409,5.73367 -0.0118,107.02383 -0.0119,107.02384 -1.23428,4.83462 c -0.67884,2.6591 -2.38152,7.21 -3.78373,10.11313 l -2.54944,5.27841 -6.56872,6.56872 -6.56871,6.5687 -5.27842,2.54948 c -2.90313,1.40219 -7.45641,3.10549 -10.1184,3.78511 l -4.84001,1.23564 -107.63093,-0.0674 -107.63093,-0.0674 z"
     id="path19"
     sodipodi:nodetypes="cscccccsscccsscsscccccccccsscccsscccsscccc" /><path
     style="fill:#93272d;fill-opacity:1;stroke-width:0.999999"
     d="m 116.90564,432.47737 c -7.0149,-1.66884 -13.35941,-4.28674 -20.203359,-8.33649 l -5.809513,-3.43767 -5.39934,-4.93446 -5.399339,-4.93446 -4.593725,-6.91929 -4.593734,-6.91929 -2.171513,-5.50352 c -1.194324,-3.02694 -2.745582,-7.98011 -3.447239,-11.00705 l -1.275726,-5.50353 -0.01253,-37.55529 -0.01253,-37.5553 11.894135,-41.18745 c 6.541778,-22.65311 12.682434,-43.66404 13.645898,-46.69098 l 1.751747,-5.50353 32.287378,-32.44557 c 17.75806,-17.84505 33.25241,-32.95739 34.4319,-33.58285 1.17949,-0.62545 23.53039,-8.04082 49.66868,-16.47857 l 47.52414,-15.34129 37.41528,0.0364 37.41527,0.0373 5.88876,1.33939 c 3.23882,0.73663 8.24858,2.29218 11.13282,3.45681 l 5.24406,2.11742 6.79109,4.50197 6.7911,4.50196 4.37792,4.62906 c 8.60969,9.10343 14.77834,20.61943 17.53332,32.73218 l 1.35971,5.97818 -0.0124,111.58805 -0.0124,111.58804 -1.28691,5.0408 c -0.7078,2.77251 -2.48309,7.51748 -3.9451,10.54442 l -2.65817,5.50353 -6.84885,6.84884 -6.84884,6.84884 -5.50353,2.6582 c -3.02694,1.46199 -7.7744,3.23794 -10.54992,3.94654 l -5.04641,1.28833 -112.22103,-0.0703 -112.22104,-0.0703 z m 5.07576,-56.23316 -30.476649,-30.48852 -0.25422,9.10944 -0.254221,9.10943 0.854266,6.43667 0.854274,6.43667 1.723425,4.6062 1.723416,4.60628 4.026749,4.97468 4.02675,4.97459 4.54086,3.11195 c 8.48723,5.81646 15.11182,7.33654 32.70937,7.50545 l 11.00264,0.10567 z m 218.87539,29.84782 c 0,-0.3524 -10.57312,-11.20815 -23.49582,-24.12399 l -23.49582,-23.48329 -5.92687,5.17205 c -14.10703,12.3102 -39.86749,32.52372 -52.95173,41.54975 l -2.08353,1.43735 53.97689,0.044 53.97688,0.0449 z M 214.67702,385.23231 c 18.22008,-12.31444 51.46402,-37.75198 51.62715,-39.50397 0.0416,-0.44638 -64.90369,-19.54217 -66.21063,-19.46783 l -0.63502,0.0364 v 34.321 34.321 l 1.90507,-0.99792 c 1.04778,-0.54882 7.03883,-4.46759 13.31343,-8.70835 z m -42.67335,-62.96533 c -0.31859,-0.31861 -44.15473,17.27125 -45.32281,18.18636 -0.21183,0.16595 9.88502,10.57735 22.43745,23.13648 l 22.82258,22.83472 0.22199,-31.88819 c 0.12209,-17.53846 0.0505,-32.05973 -0.15921,-32.26937 z m 189.97612,9.32145 -0.0444,-53.97688 -1.43731,2.08355 c -9.02605,13.08425 -29.23962,38.84464 -41.54984,52.9517 l -5.17197,5.92687 23.48328,23.49582 c 12.9158,12.92271 23.77159,23.49583 24.12396,23.49583 h 0.64066 z m -217.29348,-28.55204 36.95274,-15.21657 28.70965,-28.81163 28.70965,-28.81163 17.12414,-40.9652 17.12416,-40.96511 -6.23133,-6.19655 -6.23132,-6.19663 -44.45155,14.37597 -44.45156,14.37597 -28.12275,28.12895 -28.12276,28.12894 -12.26705,42.33481 -12.267049,42.33481 6.854852,6.91311 6.854857,6.9131 1.43129,-0.56288 c 0.78722,-0.30955 18.06003,-7.41037 38.38403,-15.77946 z m 129.03783,14.58155 c -0.21163,-0.5821 -4.52168,-15.2567 -9.57788,-32.61016 l -9.19311,-31.55172 -23.10885,23.08475 -23.10886,23.08484 2.77013,0.80758 c 1.52358,0.44417 15.91509,4.68731 31.98115,9.42914 16.06607,4.74184 29.52854,8.66484 29.9166,8.71776 l 0.70559,0.0962 z m 34.37542,-14.65885 c 10.13946,-12.28488 24.26322,-31.34503 33.74794,-45.54303 l 8.56793,-12.82567 -34.12174,-0.22141 c -18.76695,-0.12175 -34.31515,-0.0279 -34.55154,0.20846 -0.52305,0.523 18.6199,66.49579 19.27763,66.43695 0.2561,-0.0229 3.442,-3.64782 7.07978,-8.0553 z m 10.33811,-109.57545 -23.67782,-23.6892 -0.5153,0.61673 c -0.41781,0.49998 -17.01976,39.96965 -19.04588,45.27988 l -0.56536,1.48172 h 33.74109 33.7411 z m 43.36495,-10.3904 -0.45877,-13.75881 -1.78118,-5.50353 -1.78118,-5.50352 -3.24017,-4.65683 -3.24017,-4.65683 -4.97464,-4.02672 -4.97465,-4.0268 -4.54693,-1.70118 c -2.50081,-0.93569 -7.08911,-2.06899 -10.19622,-2.51842 l -5.64928,-0.81714 -10.15594,-0.0169 -10.15595,-0.0169 30.47224,30.48106 c 16.75974,16.76459 30.62286,30.48107 30.80693,30.48107 0.18408,0 0.12824,-6.19147 -0.12409,-13.75882 z"
     id="path18" /></g></svg>
